<?xml version="1.0" encoding="UTF-8"?>
<svg xmlns="http://www.w3.org/2000/svg" viewBox="0 0 336 327" width="2048" height="2048" role="img" aria-label="Punch and Roll logo" shape-rendering="geometricPrecision">
  <title>Punch and Roll</title>
  <desc>Vectorized logo reconstructed from the provided Punch and Roll artwork. Transparent background.</desc>
  <path d="M 295.00 318.00 L 295.00 319.00 L 309.00 319.00 L 309.00 318.00 Z M 272.00 317.00 L 272.00 318.00 L 291.00 318.00 L 291.00 317.00 Z M 126.00 308.00 L 126.00 309.00 L 128.00 310.00 L 128.00 309.00 Z M 147.00 215.00 L 147.00 216.00 L 152.00 216.00 L 152.00 215.00 Z M 141.00 215.00 L 141.00 216.00 L 144.00 216.00 L 144.00 215.00 Z M 175.00 209.00 L 171.00 210.00 L 171.00 211.00 L 173.00 211.00 L 175.00 210.00 Z M 211.00 209.00 L 210.00 211.00 L 206.00 214.00 L 206.00 216.00 L 203.00 220.00 L 203.00 223.00 L 206.00 224.00 L 208.00 227.00 L 204.00 233.00 L 203.00 239.00 L 198.00 249.00 L 198.00 252.00 L 196.00 254.00 L 197.00 257.00 L 206.00 264.00 L 209.00 265.00 L 211.00 257.00 L 213.00 254.00 L 214.00 249.00 L 216.00 247.00 L 216.00 245.00 L 218.00 242.00 L 221.00 233.00 L 222.00 232.00 L 224.00 232.00 L 227.00 234.00 L 237.00 234.00 L 239.00 233.00 L 241.00 235.00 L 243.00 241.00 L 245.00 243.00 L 245.00 246.00 L 247.00 250.00 L 249.00 261.00 L 251.00 264.00 L 256.00 279.00 L 259.00 279.00 L 264.00 276.00 L 266.00 276.00 L 269.00 272.00 L 267.00 268.00 L 266.00 262.00 L 264.00 259.00 L 264.00 256.00 L 263.00 255.00 L 263.00 252.00 L 261.00 249.00 L 261.00 246.00 L 258.00 241.00 L 258.00 238.00 L 256.00 236.00 L 256.00 233.00 L 254.00 231.00 L 255.00 229.00 L 259.00 229.00 L 260.00 228.00 L 263.00 229.00 L 262.00 227.00 L 263.00 224.00 L 263.00 213.00 L 264.00 212.00 L 263.00 209.00 L 260.00 209.00 L 259.00 210.00 L 251.00 210.00 L 250.00 211.00 L 245.00 211.00 L 243.00 212.00 L 240.00 208.00 L 238.00 207.00 L 233.00 207.00 L 232.00 206.00 L 224.00 206.00 L 222.00 209.00 L 219.00 209.00 L 218.00 208.00 L 213.00 208.00 Z M 51.00 189.00 L 53.00 188.00 L 58.00 195.00 L 56.00 196.00 L 53.00 193.00 Z M 275.00 173.00 L 274.00 173.00 L 274.00 176.00 L 273.00 177.00 L 270.00 177.00 L 270.00 178.00 L 275.00 177.00 Z M 71.00 146.00 L 73.00 147.00 L 76.00 153.00 L 87.00 167.00 L 89.00 168.00 L 95.00 176.00 L 111.00 189.00 L 111.00 191.00 L 108.00 195.00 L 106.00 195.00 L 98.00 190.00 L 77.00 168.00 L 74.00 162.00 L 68.00 154.00 L 69.00 148.00 Z M 327.00 103.00 L 327.00 115.00 L 328.00 115.00 L 328.00 103.00 Z M 322.00 81.00 L 323.00 85.00 L 324.00 85.00 L 323.00 81.00 Z M 244.00 78.00 L 245.00 80.00 L 248.00 81.00 L 248.00 80.00 Z M 316.00 67.00 L 316.00 68.00 L 318.00 69.00 L 319.00 73.00 L 320.00 73.00 L 319.00 69.00 Z M 126.00 58.00 L 127.00 59.00 L 131.00 59.00 L 145.00 67.00 L 152.00 74.00 L 162.00 87.00 L 162.00 89.00 L 167.00 97.00 L 168.00 103.00 L 170.00 107.00 L 171.00 127.00 L 170.00 128.00 L 170.00 133.00 L 168.00 137.00 L 168.00 140.00 L 163.00 149.00 L 157.00 155.00 L 152.00 158.00 L 150.00 158.00 L 149.00 156.00 L 153.00 150.00 L 153.00 148.00 L 151.00 148.00 L 140.00 163.00 L 138.00 164.00 L 138.00 165.00 L 127.00 176.00 L 126.00 176.00 L 123.00 180.00 L 116.00 184.00 L 114.00 184.00 L 101.00 172.00 L 100.00 172.00 L 91.00 161.00 L 89.00 160.00 L 76.00 141.00 L 76.00 139.00 L 74.00 137.00 L 74.00 115.00 L 76.00 109.00 L 76.00 103.00 L 79.00 97.00 L 80.00 91.00 L 82.00 88.00 L 82.00 86.00 L 88.00 77.00 L 95.00 71.00 L 97.00 72.00 L 96.00 76.00 L 94.00 79.00 L 94.00 82.00 L 92.00 85.00 L 92.00 90.00 L 91.00 91.00 L 91.00 101.00 L 92.00 101.00 L 96.00 86.00 L 106.00 69.00 L 116.00 61.00 Z M 309.00 55.00 L 310.00 58.00 L 312.00 59.00 L 311.00 56.00 Z M 261.00 30.00 L 261.00 31.00 L 266.00 31.00 L 267.00 32.00 L 270.00 32.00 L 282.00 36.00 L 286.00 38.00 L 287.00 40.00 L 297.00 45.00 L 297.00 44.00 L 293.00 41.00 L 287.00 39.00 L 285.00 36.00 L 282.00 36.00 L 276.00 34.00 L 271.00 31.00 Z M 201.00 29.00 L 202.00 32.00 L 206.00 33.00 L 206.00 32.00 L 203.00 31.00 L 202.00 29.00 Z M 230.00 26.00 L 230.00 27.00 L 245.00 28.00 L 248.00 30.00 L 251.00 30.00 L 251.00 29.00 L 248.00 29.00 L 244.00 27.00 Z M 208.00 22.00 L 208.00 23.00 L 211.00 23.00 L 212.00 24.00 L 226.00 26.00 L 226.00 25.00 L 222.00 25.00 L 221.00 24.00 Z M 191.00 28.00 L 178.00 21.00 L 172.00 21.00 L 171.00 20.00 L 155.00 18.00 L 154.00 17.00 L 138.00 16.00 L 133.00 14.00 L 126.00 14.00 L 125.00 13.00 L 120.00 13.00 L 119.00 12.00 L 114.00 12.00 L 113.00 11.00 L 108.00 11.00 L 107.00 10.00 L 101.00 10.00 L 95.00 8.00 L 81.00 7.00 L 80.00 6.00 L 75.00 6.00 L 74.00 5.00 L 68.00 5.00 L 67.00 4.00 L 57.00 4.00 L 56.00 3.00 L 52.00 3.00 L 51.00 0.00 L 50.00 0.00 L 50.00 2.00 L 48.00 5.00 L 48.00 9.00 L 47.00 10.00 L 47.00 18.00 L 45.00 23.00 L 44.00 38.00 L 42.00 44.00 L 42.00 52.00 L 41.00 53.00 L 41.00 60.00 L 40.00 61.00 L 40.00 66.00 L 39.00 67.00 L 38.00 84.00 L 36.00 90.00 L 36.00 98.00 L 35.00 99.00 L 35.00 104.00 L 34.00 105.00 L 33.00 123.00 L 31.00 128.00 L 30.00 144.00 L 28.00 150.00 L 27.00 167.00 L 25.00 172.00 L 24.00 189.00 L 23.00 190.00 L 23.00 195.00 L 22.00 196.00 L 22.00 204.00 L 20.00 209.00 L 19.00 227.00 L 18.00 228.00 L 18.00 233.00 L 17.00 234.00 L 16.00 249.00 L 14.00 253.00 L 14.00 262.00 L 13.00 263.00 L 13.00 271.00 L 12.00 272.00 L 12.00 277.00 L 11.00 278.00 L 10.00 295.00 L 8.00 300.00 L 8.00 302.00 L 10.00 304.00 L 42.00 305.00 L 43.00 306.00 L 66.00 306.00 L 68.00 302.00 L 68.00 294.00 L 69.00 293.00 L 69.00 288.00 L 70.00 287.00 L 70.00 280.00 L 71.00 279.00 L 71.00 272.00 L 73.00 267.00 L 74.00 251.00 L 76.00 245.00 L 76.00 237.00 L 78.00 232.00 L 78.00 220.00 L 75.00 218.00 L 58.00 200.00 L 57.00 197.00 L 59.00 196.00 L 65.00 203.00 L 67.00 203.00 L 65.00 199.00 L 64.00 199.00 L 59.00 193.00 L 56.00 186.00 L 52.00 180.00 L 52.00 177.00 L 56.00 172.00 L 56.00 170.00 L 64.00 158.00 L 66.00 158.00 L 68.00 160.00 L 69.00 163.00 L 80.00 177.00 L 81.00 180.00 L 82.00 180.00 L 85.00 184.00 L 96.00 193.00 L 97.00 195.00 L 101.00 197.00 L 105.00 201.00 L 106.00 204.00 L 122.00 204.00 L 123.00 205.00 L 144.00 206.00 L 145.00 207.00 L 155.00 207.00 L 164.00 204.00 L 168.00 204.00 L 175.00 201.00 L 189.00 191.00 L 202.00 177.00 L 209.00 165.00 L 211.00 158.00 L 213.00 156.00 L 213.00 154.00 L 215.00 151.00 L 215.00 148.00 L 217.00 145.00 L 217.00 141.00 L 219.00 138.00 L 221.00 122.00 L 222.00 121.00 L 222.00 112.00 L 223.00 111.00 L 223.00 88.00 L 222.00 87.00 L 222.00 79.00 L 219.00 71.00 L 219.00 67.00 L 217.00 64.00 L 213.00 52.00 L 209.00 47.00 L 206.00 41.00 L 205.00 41.00 L 199.00 34.00 Z" fill="#111111" fill-rule="evenodd"/>
<path d="M 201.00 24.00 L 201.00 27.00 L 203.00 30.00 L 207.00 32.00 L 210.00 38.00 L 212.00 39.00 L 218.00 48.00 L 224.00 60.00 L 225.00 66.00 L 227.00 69.00 L 227.00 75.00 L 228.00 76.00 L 229.00 87.00 L 230.00 88.00 L 230.00 112.00 L 229.00 113.00 L 229.00 124.00 L 227.00 130.00 L 227.00 136.00 L 223.00 147.00 L 223.00 151.00 L 221.00 153.00 L 220.00 158.00 L 218.00 161.00 L 217.00 166.00 L 214.00 170.00 L 214.00 172.00 L 210.00 177.00 L 207.00 184.00 L 191.00 201.00 L 188.00 202.00 L 185.00 205.00 L 173.00 212.00 L 170.00 212.00 L 159.00 216.00 L 153.00 216.00 L 152.00 217.00 L 147.00 217.00 L 145.00 216.00 L 144.00 217.00 L 140.00 217.00 L 139.00 220.00 L 139.00 226.00 L 137.00 231.00 L 137.00 239.00 L 136.00 240.00 L 136.00 245.00 L 135.00 246.00 L 135.00 251.00 L 134.00 252.00 L 134.00 259.00 L 132.00 265.00 L 132.00 272.00 L 131.00 273.00 L 131.00 279.00 L 130.00 280.00 L 130.00 287.00 L 129.00 288.00 L 129.00 294.00 L 128.00 295.00 L 128.00 300.00 L 127.00 301.00 L 127.00 307.00 L 131.00 309.00 L 180.00 310.00 L 181.00 308.00 L 183.00 289.00 L 185.00 284.00 L 185.00 278.00 L 186.00 277.00 L 186.00 272.00 L 188.00 266.00 L 188.00 260.00 L 189.00 259.00 L 189.00 254.00 L 190.00 253.00 L 190.00 248.00 L 191.00 247.00 L 192.00 238.00 L 196.00 232.00 L 198.00 226.00 L 205.00 216.00 L 205.00 214.00 L 209.00 211.00 L 211.00 208.00 L 214.00 207.00 L 214.00 205.00 L 216.00 204.00 L 216.00 203.00 L 222.00 197.00 L 243.00 182.00 L 246.00 182.00 L 249.00 179.00 L 253.00 179.00 L 260.00 176.00 L 273.00 176.00 L 272.00 160.00 L 271.00 159.00 L 271.00 156.00 L 269.00 157.00 L 269.00 163.00 L 265.00 166.00 L 261.00 166.00 L 260.00 167.00 L 255.00 167.00 L 253.00 169.00 L 250.00 169.00 L 247.00 171.00 L 242.00 172.00 L 233.00 178.00 L 229.00 182.00 L 227.00 182.00 L 218.00 190.00 L 216.00 189.00 L 218.00 184.00 L 220.00 182.00 L 221.00 177.00 L 225.00 170.00 L 225.00 168.00 L 227.00 166.00 L 227.00 163.00 L 230.00 157.00 L 233.00 148.00 L 233.00 144.00 L 235.00 140.00 L 236.00 129.00 L 237.00 128.00 L 237.00 122.00 L 238.00 121.00 L 238.00 107.00 L 239.00 106.00 L 238.00 81.00 L 236.00 75.00 L 239.00 74.00 L 251.00 81.00 L 264.00 94.00 L 275.00 112.00 L 278.00 121.00 L 279.00 131.00 L 280.00 132.00 L 280.00 153.00 L 279.00 154.00 L 278.00 169.00 L 276.00 174.00 L 276.00 179.00 L 274.00 183.00 L 274.00 186.00 L 272.00 189.00 L 271.00 195.00 L 269.00 201.00 L 266.00 206.00 L 266.00 209.00 L 264.00 213.00 L 264.00 224.00 L 263.00 225.00 L 266.00 234.00 L 266.00 237.00 L 269.00 243.00 L 270.00 249.00 L 273.00 254.00 L 273.00 257.00 L 279.00 274.00 L 273.00 279.00 L 271.00 279.00 L 264.00 284.00 L 262.00 284.00 L 259.00 287.00 L 259.00 292.00 L 261.00 295.00 L 262.00 300.00 L 266.00 309.00 L 266.00 313.00 L 268.00 316.00 L 291.00 316.00 L 292.00 318.00 L 295.00 317.00 L 310.00 317.00 L 311.00 316.00 L 311.00 312.00 L 309.00 308.00 L 309.00 305.00 L 306.00 299.00 L 306.00 295.00 L 303.00 289.00 L 302.00 283.00 L 299.00 277.00 L 297.00 271.00 L 297.00 268.00 L 295.00 265.00 L 289.00 244.00 L 287.00 242.00 L 285.00 236.00 L 285.00 232.00 L 283.00 230.00 L 279.00 218.00 L 279.00 213.00 L 295.00 201.00 L 307.00 187.00 L 308.00 184.00 L 311.00 181.00 L 314.00 175.00 L 314.00 173.00 L 316.00 171.00 L 316.00 168.00 L 320.00 158.00 L 321.00 150.00 L 323.00 146.00 L 323.00 141.00 L 325.00 136.00 L 325.00 127.00 L 326.00 126.00 L 326.00 98.00 L 325.00 97.00 L 324.00 89.00 L 321.00 82.00 L 320.00 76.00 L 315.00 68.00 L 315.00 66.00 L 309.00 57.00 L 297.00 46.00 L 287.00 41.00 L 282.00 37.00 L 270.00 33.00 L 261.00 32.00 L 260.00 31.00 L 248.00 31.00 L 245.00 29.00 L 222.00 27.00 L 221.00 26.00 L 212.00 25.00 L 207.00 23.00 Z" fill="#C82432" fill-rule="evenodd"/>
</svg>
