<?xml version="1.0" encoding="UTF-8"?>
<svg xmlns="http://www.w3.org/2000/svg" viewBox="0 0 512 512" width="2048" height="2048" role="img" aria-label="Punch and Roll logo" shape-rendering="geometricPrecision">
  <title>Punch and Roll</title>
  <desc>Vectorized logo reconstructed from the provided Punch and Roll artwork. Transparent background.</desc>
  <path d="M 5.00 506.00 L 18.00 505.00 L 18.00 504.00 L 9.00 504.00 L 5.00 505.00 Z M 36.00 503.00 L 36.00 504.00 L 57.00 504.00 L 57.00 503.00 Z M 65.00 504.00 L 85.00 503.00 L 85.00 502.00 L 73.00 502.00 L 72.00 503.00 L 65.00 503.00 Z M 116.00 500.00 L 112.00 501.00 L 112.00 502.00 L 114.00 502.00 Z M 4.00 494.00 L 2.00 496.00 L 0.00 496.00 L 0.00 502.00 L 3.00 502.00 Z M 368.00 492.00 L 369.00 495.00 L 366.00 497.00 L 365.00 495.00 Z M 20.00 493.00 L 20.00 494.00 L 26.00 494.00 L 26.00 493.00 Z M 81.00 491.00 L 81.00 492.00 L 112.00 492.00 L 112.00 491.00 Z M 77.00 491.00 L 45.00 492.00 L 45.00 493.00 L 65.00 493.00 L 66.00 492.00 L 77.00 492.00 Z M 200.00 487.00 L 202.00 493.00 L 198.00 495.00 L 198.00 499.00 L 201.00 503.00 L 199.00 506.00 L 195.00 507.00 L 193.00 505.00 L 194.00 489.00 L 196.00 487.00 Z M 433.00 486.00 L 433.00 487.00 L 446.00 487.00 L 446.00 486.00 Z M 456.00 485.00 L 456.00 486.00 L 495.00 486.00 L 495.00 485.00 Z M 429.00 485.00 L 427.00 485.00 L 425.00 487.00 L 429.00 486.00 Z M 499.00 484.00 L 499.00 485.00 L 509.00 486.00 L 507.00 484.00 Z M 224.00 480.00 L 221.00 494.00 L 220.00 511.00 L 225.00 511.00 L 225.00 506.00 L 227.00 499.00 L 233.00 499.00 L 234.00 500.00 L 234.00 511.00 L 238.00 511.00 L 241.00 480.00 L 236.00 481.00 L 236.00 489.00 L 234.00 492.00 L 228.00 492.00 L 227.00 491.00 L 227.00 480.00 Z M 194.00 480.00 L 190.00 483.00 L 187.00 508.00 L 188.00 511.00 L 203.00 511.00 L 205.00 507.00 L 205.00 494.00 L 203.00 492.00 L 206.00 490.00 L 207.00 487.00 L 203.00 480.00 Z M 173.00 480.00 L 168.00 481.00 L 166.00 511.00 L 171.00 511.00 L 172.00 509.00 L 172.00 496.00 L 174.00 489.00 L 174.00 481.00 Z M 153.00 480.00 L 139.00 481.00 L 137.00 489.00 L 136.00 511.00 L 141.00 511.00 L 141.00 506.00 L 143.00 501.00 L 150.00 501.00 L 151.00 500.00 L 151.00 495.00 L 150.00 494.00 L 144.00 495.00 L 143.00 494.00 L 143.00 489.00 L 145.00 487.00 L 147.00 488.00 L 153.00 487.00 L 154.00 486.00 L 154.00 481.00 Z M 320.00 479.00 L 305.00 479.00 L 305.00 485.00 L 310.00 487.00 L 309.00 500.00 L 308.00 501.00 L 308.00 510.00 L 309.00 511.00 L 313.00 510.00 L 315.00 487.00 L 320.00 485.00 Z M 254.00 479.00 L 254.00 486.00 L 259.00 487.00 L 257.00 511.00 L 261.00 511.00 L 263.00 503.00 L 264.00 488.00 L 270.00 486.00 L 270.00 480.00 Z M 390.00 478.00 L 388.00 484.00 L 386.00 509.00 L 390.00 508.00 L 390.00 503.00 L 392.00 499.00 L 394.00 500.00 L 395.00 503.00 L 398.00 503.00 L 400.00 501.00 L 401.00 502.00 L 400.00 507.00 L 401.00 509.00 L 404.00 509.00 L 406.00 506.00 L 407.00 479.00 L 403.00 478.00 L 399.00 489.00 L 397.00 490.00 L 395.00 485.00 L 395.00 480.00 L 393.00 478.00 Z M 370.00 478.00 L 365.00 479.00 L 363.00 489.00 L 361.00 492.00 L 361.00 495.00 L 357.00 505.00 L 358.00 510.00 L 361.00 509.00 L 362.00 505.00 L 366.00 503.00 L 370.00 505.00 L 371.00 509.00 L 375.00 509.00 L 372.00 479.00 Z M 347.00 478.00 L 333.00 479.00 L 332.00 500.00 L 331.00 501.00 L 331.00 510.00 L 332.00 511.00 L 344.00 510.00 L 345.00 509.00 L 345.00 503.00 L 338.00 503.00 L 337.00 502.00 L 338.00 497.00 L 345.00 497.00 L 345.00 491.00 L 338.00 491.00 L 337.00 486.00 L 338.00 485.00 L 346.00 485.00 L 347.00 484.00 Z M 332.00 450.00 L 332.00 451.00 L 341.00 451.00 L 341.00 450.00 Z M 285.00 450.00 L 285.00 451.00 L 328.00 451.00 L 328.00 450.00 Z M 276.00 450.00 L 276.00 451.00 L 279.00 451.00 L 279.00 450.00 Z M 275.00 440.00 L 275.00 441.00 L 278.00 441.00 L 278.00 440.00 Z M 334.00 416.00 L 334.00 419.00 L 338.00 419.00 Z M 288.00 406.00 L 287.00 406.00 L 286.00 410.00 L 288.00 409.00 Z M 315.00 399.00 L 315.00 402.00 L 316.00 402.00 L 316.00 399.00 Z M 320.00 387.00 L 320.00 388.00 L 323.00 388.00 L 323.00 387.00 Z M 437.00 376.00 L 441.00 381.00 L 441.00 387.00 L 439.00 392.00 L 436.00 432.00 L 433.00 436.00 L 426.00 437.00 L 424.00 434.00 L 423.00 429.00 L 425.00 424.00 L 425.00 413.00 L 426.00 412.00 L 426.00 402.00 L 428.00 395.00 L 428.00 385.00 L 431.00 378.00 L 433.00 376.00 Z M 390.00 375.00 L 394.00 378.00 L 394.00 394.00 L 393.00 397.00 L 390.00 400.00 L 383.00 401.00 L 382.00 400.00 L 382.00 394.00 L 383.00 393.00 L 384.00 376.00 L 385.00 375.00 Z M 26.00 370.00 L 33.00 370.00 L 37.00 374.00 L 36.00 391.00 L 31.00 397.00 L 24.00 397.00 L 23.00 396.00 L 24.00 378.00 Z M 277.00 367.00 L 277.00 370.00 L 278.00 370.00 L 278.00 367.00 Z M 328.00 365.00 L 328.00 366.00 L 346.00 366.00 L 346.00 365.00 Z M 309.00 365.00 L 309.00 366.00 L 325.00 366.00 L 325.00 365.00 Z M 294.00 364.00 L 294.00 365.00 L 305.00 365.00 L 305.00 364.00 Z M 279.00 364.00 L 279.00 365.00 L 288.00 365.00 L 288.00 364.00 Z M 495.00 360.00 L 494.00 362.00 L 494.00 373.00 L 492.00 381.00 L 492.00 392.00 L 490.00 398.00 L 490.00 409.00 L 489.00 410.00 L 489.00 420.00 L 488.00 421.00 L 486.00 451.00 L 485.00 453.00 L 487.00 455.00 L 509.00 455.00 L 511.00 454.00 L 511.00 436.00 L 501.00 436.00 L 500.00 435.00 L 501.00 422.00 L 502.00 421.00 L 502.00 409.00 L 504.00 402.00 L 505.00 381.00 L 507.00 372.00 L 507.00 360.00 Z M 476.00 360.00 L 466.00 360.00 L 464.00 359.00 L 463.00 362.00 L 462.00 374.00 L 461.00 375.00 L 461.00 385.00 L 459.00 394.00 L 458.00 417.00 L 456.00 424.00 L 455.00 447.00 L 454.00 448.00 L 454.00 455.00 L 456.00 456.00 L 458.00 455.00 L 480.00 455.00 L 482.00 449.00 L 482.00 437.00 L 481.00 436.00 L 470.00 436.00 L 469.00 435.00 L 471.00 409.00 L 473.00 401.00 L 474.00 379.00 L 476.00 372.00 Z M 444.00 358.00 L 439.00 358.00 L 438.00 357.00 L 427.00 358.00 L 420.00 363.00 L 416.00 371.00 L 414.00 381.00 L 413.00 405.00 L 411.00 412.00 L 409.00 436.00 L 411.00 446.00 L 416.00 454.00 L 420.00 456.00 L 434.00 456.00 L 438.00 454.00 L 444.00 448.00 L 449.00 435.00 L 451.00 410.00 L 453.00 404.00 L 453.00 394.00 L 454.00 393.00 L 454.00 369.00 L 451.00 365.00 L 451.00 363.00 Z M 373.00 356.00 L 371.00 362.00 L 371.00 373.00 L 369.00 381.00 L 369.00 390.00 L 367.00 396.00 L 366.00 418.00 L 364.00 425.00 L 362.00 455.00 L 363.00 456.00 L 374.00 456.00 L 376.00 455.00 L 379.00 421.00 L 383.00 420.00 L 385.00 423.00 L 385.00 430.00 L 388.00 442.00 L 389.00 454.00 L 391.00 456.00 L 401.00 456.00 L 403.00 455.00 L 403.00 446.00 L 401.00 442.00 L 401.00 434.00 L 400.00 433.00 L 400.00 426.00 L 398.00 421.00 L 398.00 415.00 L 403.00 410.00 L 407.00 399.00 L 407.00 391.00 L 409.00 385.00 L 409.00 372.00 L 406.00 364.00 L 401.00 359.00 L 397.00 357.00 Z M 216.00 353.00 L 215.00 354.00 L 215.00 364.00 L 213.00 372.00 L 212.00 397.00 L 210.00 404.00 L 209.00 429.00 L 207.00 438.00 L 206.00 455.00 L 207.00 456.00 L 220.00 456.00 L 221.00 446.00 L 222.00 445.00 L 222.00 435.00 L 224.00 431.00 L 225.00 416.00 L 226.00 415.00 L 237.00 415.00 L 238.00 416.00 L 238.00 427.00 L 237.00 428.00 L 237.00 440.00 L 236.00 441.00 L 235.00 454.00 L 236.00 456.00 L 248.00 456.00 L 250.00 453.00 L 250.00 443.00 L 252.00 437.00 L 253.00 414.00 L 255.00 404.00 L 256.00 379.00 L 258.00 374.00 L 259.00 354.00 L 251.00 354.00 L 250.00 353.00 L 245.00 354.00 L 242.00 384.00 L 241.00 385.00 L 241.00 393.00 L 240.00 394.00 L 228.00 394.00 L 227.00 393.00 L 227.00 385.00 L 228.00 384.00 L 228.00 371.00 L 230.00 365.00 L 230.00 354.00 L 229.00 353.00 Z M 193.00 351.00 L 181.00 351.00 L 175.00 354.00 L 167.00 363.00 L 164.00 373.00 L 164.00 385.00 L 162.00 392.00 L 159.00 438.00 L 161.00 442.00 L 162.00 449.00 L 164.00 452.00 L 173.00 457.00 L 184.00 457.00 L 192.00 454.00 L 197.00 448.00 L 202.00 435.00 L 202.00 427.00 L 203.00 426.00 L 203.00 421.00 L 202.00 420.00 L 189.00 420.00 L 188.00 421.00 L 187.00 432.00 L 184.00 436.00 L 181.00 437.00 L 177.00 436.00 L 174.00 431.00 L 174.00 426.00 L 176.00 419.00 L 176.00 408.00 L 177.00 407.00 L 177.00 393.00 L 179.00 386.00 L 180.00 374.00 L 183.00 372.00 L 187.00 372.00 L 191.00 374.00 L 192.00 376.00 L 192.00 387.00 L 205.00 388.00 L 207.00 384.00 L 207.00 368.00 L 205.00 361.00 L 197.00 352.00 Z M 114.00 350.00 L 112.00 354.00 L 111.00 380.00 L 109.00 387.00 L 108.00 415.00 L 107.00 416.00 L 106.00 435.00 L 104.00 443.00 L 104.00 456.00 L 118.00 456.00 L 119.00 455.00 L 120.00 437.00 L 121.00 436.00 L 121.00 421.00 L 124.00 405.00 L 126.00 406.00 L 126.00 411.00 L 128.00 415.00 L 129.00 427.00 L 131.00 432.00 L 131.00 438.00 L 135.00 456.00 L 150.00 456.00 L 151.00 454.00 L 151.00 444.00 L 152.00 443.00 L 152.00 428.00 L 154.00 418.00 L 154.00 405.00 L 155.00 404.00 L 155.00 392.00 L 157.00 385.00 L 157.00 371.00 L 158.00 370.00 L 159.00 352.00 L 145.00 352.00 L 145.00 357.00 L 143.00 363.00 L 143.00 374.00 L 142.00 375.00 L 141.00 402.00 L 139.00 403.00 L 137.00 398.00 L 137.00 391.00 L 135.00 386.00 L 135.00 381.00 L 133.00 376.00 L 129.00 352.00 L 128.00 351.00 L 116.00 351.00 Z M 103.00 350.00 L 91.00 350.00 L 90.00 351.00 L 89.00 365.00 L 87.00 372.00 L 86.00 402.00 L 84.00 411.00 L 84.00 427.00 L 81.00 434.00 L 78.00 436.00 L 71.00 435.00 L 68.00 430.00 L 69.00 415.00 L 70.00 414.00 L 70.00 401.00 L 71.00 400.00 L 71.00 387.00 L 73.00 380.00 L 74.00 350.00 L 63.00 350.00 L 61.00 349.00 L 59.00 351.00 L 55.00 406.00 L 53.00 413.00 L 53.00 442.00 L 55.00 445.00 L 56.00 450.00 L 60.00 454.00 L 68.00 458.00 L 81.00 457.00 L 88.00 454.00 L 95.00 445.00 L 97.00 440.00 L 98.00 429.00 L 99.00 428.00 L 99.00 419.00 L 101.00 411.00 L 102.00 382.00 L 103.00 381.00 L 104.00 359.00 L 105.00 358.00 L 105.00 352.00 Z M 38.00 348.00 L 15.00 348.00 L 14.00 347.00 L 11.00 348.00 L 10.00 366.00 L 8.00 375.00 L 8.00 390.00 L 6.00 400.00 L 5.00 430.00 L 3.00 438.00 L 3.00 453.00 L 0.00 454.00 L 4.00 457.00 L 17.00 457.00 L 18.00 456.00 L 21.00 419.00 L 22.00 418.00 L 35.00 417.00 L 42.00 414.00 L 49.00 402.00 L 49.00 398.00 L 51.00 394.00 L 51.00 384.00 L 52.00 383.00 L 52.00 365.00 L 48.00 355.00 L 44.00 351.00 Z M 407.00 318.00 L 407.00 319.00 L 421.00 319.00 L 421.00 318.00 Z M 384.00 317.00 L 384.00 318.00 L 403.00 318.00 L 403.00 317.00 Z M 259.00 215.00 L 259.00 216.00 L 264.00 216.00 L 264.00 215.00 Z M 253.00 215.00 L 253.00 216.00 L 256.00 216.00 L 256.00 215.00 Z M 287.00 209.00 L 283.00 210.00 L 283.00 211.00 L 285.00 211.00 Z M 323.00 209.00 L 318.00 214.00 L 318.00 216.00 L 315.00 220.00 L 315.00 223.00 L 318.00 224.00 L 320.00 227.00 L 316.00 233.00 L 315.00 239.00 L 310.00 249.00 L 310.00 252.00 L 308.00 254.00 L 309.00 257.00 L 318.00 264.00 L 321.00 265.00 L 323.00 257.00 L 334.00 232.00 L 339.00 234.00 L 349.00 234.00 L 351.00 233.00 L 357.00 243.00 L 361.00 261.00 L 368.00 279.00 L 371.00 279.00 L 378.00 276.00 L 381.00 272.00 L 376.00 259.00 L 373.00 246.00 L 370.00 241.00 L 370.00 238.00 L 368.00 236.00 L 368.00 233.00 L 366.00 231.00 L 367.00 229.00 L 372.00 228.00 L 375.00 229.00 L 374.00 227.00 L 375.00 213.00 L 376.00 212.00 L 375.00 209.00 L 363.00 210.00 L 356.00 212.00 L 352.00 208.00 L 344.00 206.00 L 336.00 206.00 L 334.00 209.00 L 330.00 208.00 Z M 163.00 189.00 L 165.00 188.00 L 170.00 195.00 L 168.00 196.00 Z M 387.00 173.00 L 386.00 173.00 L 386.00 176.00 L 382.00 177.00 L 382.00 178.00 L 387.00 177.00 Z M 183.00 146.00 L 185.00 147.00 L 194.00 161.00 L 207.00 176.00 L 223.00 189.00 L 223.00 191.00 L 220.00 195.00 L 218.00 195.00 L 210.00 190.00 L 189.00 168.00 L 180.00 154.00 L 181.00 148.00 Z M 439.00 103.00 L 439.00 115.00 L 440.00 115.00 L 440.00 103.00 Z M 434.00 81.00 L 435.00 85.00 L 436.00 85.00 L 435.00 81.00 Z M 356.00 78.00 L 357.00 80.00 L 360.00 81.00 Z M 428.00 67.00 L 430.00 69.00 L 431.00 73.00 L 432.00 73.00 L 431.00 69.00 Z M 238.00 58.00 L 243.00 59.00 L 257.00 67.00 L 264.00 74.00 L 274.00 87.00 L 274.00 89.00 L 279.00 97.00 L 282.00 107.00 L 283.00 127.00 L 280.00 140.00 L 275.00 149.00 L 269.00 155.00 L 262.00 158.00 L 261.00 156.00 L 265.00 150.00 L 265.00 148.00 L 263.00 148.00 L 252.00 163.00 L 235.00 180.00 L 228.00 184.00 L 226.00 184.00 L 212.00 172.00 L 201.00 160.00 L 188.00 141.00 L 188.00 139.00 L 186.00 137.00 L 186.00 115.00 L 188.00 109.00 L 188.00 103.00 L 191.00 97.00 L 192.00 91.00 L 200.00 77.00 L 207.00 71.00 L 209.00 72.00 L 204.00 85.00 L 204.00 90.00 L 203.00 91.00 L 203.00 101.00 L 204.00 101.00 L 208.00 86.00 L 218.00 69.00 L 228.00 61.00 Z M 421.00 55.00 L 422.00 58.00 L 424.00 59.00 L 423.00 56.00 Z M 373.00 30.00 L 373.00 31.00 L 378.00 31.00 L 394.00 36.00 L 398.00 38.00 L 399.00 40.00 L 409.00 45.00 L 405.00 41.00 L 399.00 39.00 L 397.00 36.00 L 388.00 34.00 L 383.00 31.00 Z M 313.00 29.00 L 314.00 32.00 L 318.00 33.00 Z M 342.00 26.00 L 342.00 27.00 L 357.00 28.00 L 360.00 30.00 L 363.00 30.00 L 363.00 29.00 L 360.00 29.00 L 356.00 27.00 Z M 320.00 22.00 L 320.00 23.00 L 338.00 26.00 L 338.00 25.00 Z M 303.00 28.00 L 290.00 21.00 L 284.00 21.00 L 266.00 17.00 L 250.00 16.00 L 245.00 14.00 L 238.00 14.00 L 237.00 13.00 L 213.00 10.00 L 207.00 8.00 L 193.00 7.00 L 186.00 5.00 L 180.00 5.00 L 179.00 4.00 L 169.00 4.00 L 164.00 3.00 L 163.00 0.00 L 162.00 0.00 L 159.00 10.00 L 159.00 18.00 L 157.00 23.00 L 156.00 38.00 L 154.00 44.00 L 150.00 84.00 L 148.00 90.00 L 148.00 98.00 L 146.00 105.00 L 145.00 123.00 L 143.00 128.00 L 139.00 167.00 L 137.00 172.00 L 136.00 189.00 L 134.00 196.00 L 134.00 204.00 L 132.00 209.00 L 128.00 249.00 L 126.00 253.00 L 126.00 262.00 L 123.00 278.00 L 122.00 295.00 L 120.00 302.00 L 122.00 304.00 L 154.00 305.00 L 155.00 306.00 L 178.00 306.00 L 179.00 305.00 L 180.00 294.00 L 182.00 287.00 L 182.00 280.00 L 183.00 279.00 L 183.00 272.00 L 185.00 267.00 L 186.00 251.00 L 188.00 245.00 L 188.00 237.00 L 190.00 232.00 L 190.00 220.00 L 170.00 200.00 L 169.00 197.00 L 171.00 196.00 L 177.00 203.00 L 179.00 203.00 L 177.00 199.00 L 171.00 193.00 L 164.00 180.00 L 164.00 177.00 L 176.00 158.00 L 178.00 158.00 L 193.00 180.00 L 209.00 195.00 L 213.00 197.00 L 217.00 201.00 L 218.00 204.00 L 234.00 204.00 L 235.00 205.00 L 256.00 206.00 L 257.00 207.00 L 267.00 207.00 L 276.00 204.00 L 280.00 204.00 L 287.00 201.00 L 296.00 195.00 L 314.00 177.00 L 321.00 165.00 L 323.00 158.00 L 325.00 156.00 L 327.00 148.00 L 329.00 145.00 L 329.00 141.00 L 331.00 138.00 L 333.00 122.00 L 334.00 121.00 L 334.00 112.00 L 335.00 111.00 L 335.00 88.00 L 331.00 67.00 L 325.00 52.00 L 318.00 41.00 Z" fill="#111111" fill-rule="evenodd"/>
<path d="M 115.00 494.00 L 114.00 493.00 L 66.00 493.00 L 65.00 494.00 L 27.00 494.00 L 26.00 495.00 L 6.00 494.00 L 4.00 496.00 L 4.00 503.00 L 5.00 504.00 L 9.00 503.00 L 26.00 504.00 L 36.00 502.00 L 111.00 501.00 L 115.00 499.00 Z M 509.00 488.00 L 507.00 486.00 L 447.00 487.00 L 446.00 488.00 L 427.00 487.00 L 424.00 488.00 L 423.00 494.00 L 430.00 496.00 L 433.00 495.00 L 507.00 494.00 L 509.00 492.00 Z M 272.00 443.00 L 272.00 448.00 L 273.00 449.00 L 279.00 449.00 L 280.00 450.00 L 285.00 449.00 L 328.00 449.00 L 331.00 450.00 L 332.00 449.00 L 342.00 449.00 L 343.00 447.00 L 343.00 442.00 L 340.00 441.00 L 279.00 441.00 Z M 288.00 405.00 L 289.00 409.00 L 286.00 411.00 L 285.00 408.00 Z M 337.00 397.00 L 339.00 397.00 L 341.00 400.00 L 341.00 408.00 L 340.00 409.00 L 339.00 419.00 L 334.00 420.00 L 333.00 419.00 L 333.00 413.00 L 335.00 407.00 L 334.00 403.00 L 335.00 399.00 Z M 344.00 390.00 L 341.00 389.00 L 330.00 390.00 L 329.00 408.00 L 327.00 418.00 L 327.00 427.00 L 329.00 428.00 L 339.00 428.00 L 345.00 422.00 L 346.00 406.00 L 347.00 405.00 L 347.00 393.00 Z M 306.00 388.00 L 304.00 394.00 L 301.00 427.00 L 306.00 426.00 L 308.00 415.00 L 310.00 414.00 L 312.00 417.00 L 314.00 427.00 L 319.00 428.00 L 321.00 426.00 L 321.00 413.00 L 324.00 398.00 L 324.00 389.00 L 319.00 390.00 L 317.00 402.00 L 315.00 403.00 L 311.00 390.00 Z M 292.00 388.00 L 286.00 388.00 L 284.00 392.00 L 280.00 409.00 L 275.00 422.00 L 275.00 427.00 L 279.00 428.00 L 281.00 426.00 L 281.00 423.00 L 283.00 420.00 L 289.00 420.00 L 292.00 427.00 L 296.00 426.00 L 295.00 405.00 L 294.00 404.00 L 294.00 396.00 Z M 279.00 366.00 L 279.00 373.00 L 280.00 374.00 L 305.00 374.00 L 306.00 375.00 L 319.00 375.00 L 320.00 374.00 L 324.00 375.00 L 348.00 375.00 L 350.00 374.00 L 350.00 368.00 L 349.00 367.00 Z M 313.00 24.00 L 313.00 27.00 L 315.00 30.00 L 319.00 32.00 L 322.00 38.00 L 324.00 39.00 L 330.00 48.00 L 339.00 69.00 L 339.00 75.00 L 342.00 88.00 L 342.00 112.00 L 341.00 113.00 L 341.00 124.00 L 339.00 130.00 L 339.00 136.00 L 335.00 147.00 L 335.00 151.00 L 333.00 153.00 L 326.00 172.00 L 322.00 177.00 L 319.00 184.00 L 303.00 201.00 L 285.00 212.00 L 282.00 212.00 L 271.00 216.00 L 252.00 217.00 L 251.00 226.00 L 249.00 231.00 L 249.00 239.00 L 246.00 252.00 L 246.00 259.00 L 244.00 265.00 L 244.00 272.00 L 243.00 273.00 L 239.00 307.00 L 243.00 309.00 L 292.00 310.00 L 304.00 238.00 L 308.00 232.00 L 310.00 226.00 L 317.00 216.00 L 317.00 214.00 L 323.00 208.00 L 326.00 207.00 L 326.00 205.00 L 334.00 197.00 L 355.00 182.00 L 358.00 182.00 L 361.00 179.00 L 365.00 179.00 L 372.00 176.00 L 385.00 176.00 L 384.00 160.00 L 383.00 156.00 L 381.00 157.00 L 381.00 163.00 L 379.00 165.00 L 372.00 167.00 L 367.00 167.00 L 365.00 169.00 L 354.00 172.00 L 341.00 182.00 L 339.00 182.00 L 330.00 190.00 L 328.00 189.00 L 332.00 182.00 L 337.00 168.00 L 339.00 166.00 L 339.00 163.00 L 342.00 157.00 L 347.00 140.00 L 349.00 122.00 L 350.00 121.00 L 350.00 107.00 L 351.00 106.00 L 350.00 81.00 L 348.00 75.00 L 351.00 74.00 L 363.00 81.00 L 376.00 94.00 L 387.00 112.00 L 392.00 132.00 L 392.00 153.00 L 391.00 154.00 L 390.00 169.00 L 388.00 174.00 L 388.00 179.00 L 386.00 183.00 L 386.00 186.00 L 384.00 189.00 L 383.00 195.00 L 376.00 213.00 L 376.00 224.00 L 375.00 225.00 L 378.00 237.00 L 381.00 243.00 L 382.00 249.00 L 385.00 254.00 L 385.00 257.00 L 391.00 274.00 L 385.00 279.00 L 383.00 279.00 L 376.00 284.00 L 374.00 284.00 L 371.00 287.00 L 371.00 292.00 L 373.00 295.00 L 378.00 309.00 L 378.00 313.00 L 380.00 316.00 L 403.00 316.00 L 404.00 318.00 L 407.00 317.00 L 422.00 317.00 L 423.00 312.00 L 421.00 308.00 L 421.00 305.00 L 418.00 299.00 L 418.00 295.00 L 415.00 289.00 L 414.00 283.00 L 411.00 277.00 L 401.00 244.00 L 399.00 242.00 L 397.00 236.00 L 397.00 232.00 L 395.00 230.00 L 391.00 218.00 L 391.00 213.00 L 407.00 201.00 L 419.00 187.00 L 428.00 171.00 L 428.00 168.00 L 432.00 158.00 L 433.00 150.00 L 435.00 146.00 L 435.00 141.00 L 437.00 136.00 L 437.00 127.00 L 438.00 126.00 L 438.00 98.00 L 432.00 76.00 L 421.00 57.00 L 409.00 46.00 L 399.00 41.00 L 394.00 37.00 L 372.00 31.00 L 360.00 31.00 L 357.00 29.00 L 334.00 27.00 L 319.00 23.00 Z" fill="#C82432" fill-rule="evenodd"/>
</svg>
